<svg xmlns="http://www.w3.org/2000/svg" xmlns:xlink="http://www.w3.org/1999/xlink" contentStyleType="text/css" data-diagram-type="SEQUENCE" height="1504px" preserveAspectRatio="none" style="width:1234px;height:1504px;background:#FFFFFF;" version="1.1" viewBox="0 0 1234 1504" width="1234px" zoomAndPan="magnify"><title>Amadla &#8212; Pipeline Execution Flow</title><defs/><g><text fill="#000000" font-family="sans-serif" font-size="14" font-weight="bold" lengthAdjust="spacing" textLength="239.6371" x="493.648" y="29.9659">Amadla &#8212; Pipeline Execution Flow</text><g><title>DevOps Engineer</title><rect fill="#000000" fill-opacity="0.00000" height="1297.2407" width="8" x="61.0008" y="124.1358"/><line style="stroke:#181818;stroke-width:0.5;stroke-dasharray:5,5;" x1="65" x2="65" y1="124.1358" y2="1421.3765"/></g><g><title>waiter</title><rect fill="#000000" fill-opacity="0.00000" height="1297.2407" width="8" x="158.6025" y="124.1358"/><line style="stroke:#181818;stroke-width:0.5;stroke-dasharray:5,5;" x1="162.0015" x2="162.0015" y1="124.1358" y2="1421.3765"/></g><g><title>hery</title><rect fill="#000000" fill-opacity="0.00000" height="1297.2407" width="8" x="217.9383" y="124.1358"/><line style="stroke:#181818;stroke-width:0.5;stroke-dasharray:5,5;" x1="221.2034" x2="221.2034" y1="124.1358" y2="1421.3765"/></g><g><title>doorman</title><rect fill="#000000" fill-opacity="0.00000" height="1297.2407" width="8" x="329.3214" y="124.1358"/><line style="stroke:#181818;stroke-width:0.5;stroke-dasharray:5,5;" x1="332.8575" x2="332.8575" y1="124.1358" y2="1421.3765"/></g><g><title>raise</title><rect fill="#000000" fill-opacity="0.00000" height="1297.2407" width="8" x="445.4365" y="124.1358"/><line style="stroke:#181818;stroke-width:0.5;stroke-dasharray:5,5;" x1="448.5115" x2="448.5115" y1="124.1358" y2="1421.3765"/></g><g><title>lay</title><rect fill="#000000" fill-opacity="0.00000" height="1297.2407" width="8" x="589.2706" y="124.1358"/><line style="stroke:#181818;stroke-width:0.5;stroke-dasharray:5,5;" x1="592.9676" x2="592.9676" y1="124.1358" y2="1421.3765"/></g><g><title>weaver</title><rect fill="#000000" fill-opacity="0.00000" height="1297.2407" width="8" x="711.2876" y="124.1358"/><line style="stroke:#181818;stroke-width:0.5;stroke-dasharray:5,5;" x1="714.5157" x2="714.5157" y1="124.1358" y2="1421.3765"/></g><g><title>judge</title><rect fill="#000000" fill-opacity="0.00000" height="1297.2407" width="8" x="833.8897" y="124.1358"/><line style="stroke:#181818;stroke-width:0.5;stroke-dasharray:5,5;" x1="837.1998" x2="837.1998" y1="124.1358" y2="1421.3765"/></g><g><title>YAML files</title><rect fill="#000000" fill-opacity="0.00000" height="1297.2407" width="8" x="958.5069" y="124.1358"/><line style="stroke:#181818;stroke-width:0.5;stroke-dasharray:5,5;" x1="961.914" x2="961.914" y1="124.1358" y2="1421.3765"/></g><g><title>Secret Stores</title><rect fill="#000000" fill-opacity="0.00000" height="1297.2407" width="8" x="1051.2336" y="124.1358"/><line style="stroke:#181818;stroke-width:0.5;stroke-dasharray:5,5;" x1="1055.0997" x2="1055.0997" y1="124.1358" y2="1421.3765"/></g><g><title>Cloud Provider</title><rect fill="#000000" fill-opacity="0.00000" height="1297.2407" width="8" x="1163.1502" y="124.1358"/><line style="stroke:#181818;stroke-width:0.5;stroke-dasharray:5,5;" x1="1166.3674" x2="1166.3674" y1="124.1358" y2="1421.3765"/></g><g class="participant participant-head" data-participant="user"><text fill="#000000" font-family="sans-serif" font-size="14" lengthAdjust="spacing" textLength="114.0015" x="5" y="120.0339">DevOps Engineer</text><ellipse cx="65.0008" cy="53.5679" fill="#E2E2F0" rx="8" ry="8" style="stroke:#181818;stroke-width:0.5;"/><path d="M65.0008,61.5679 L65.0008,88.5679 M52.0008,69.5679 L78.0008,69.5679 M65.0008,88.5679 L52.0008,103.5679 M65.0008,88.5679 L78.0008,103.5679" fill="none" style="stroke:#181818;stroke-width:0.5;"/></g><g class="participant participant-tail" data-participant="user"><text fill="#000000" font-family="sans-serif" font-size="14" lengthAdjust="spacing" textLength="114.0015" x="5" y="1435.3424">DevOps Engineer</text><ellipse cx="65.0008" cy="1447.9444" fill="#E2E2F0" rx="8" ry="8" style="stroke:#181818;stroke-width:0.5;"/><path d="M65.0008,1455.9444 L65.0008,1482.9444 M52.0008,1463.9444 L78.0008,1463.9444 M65.0008,1482.9444 L52.0008,1497.9444 M65.0008,1482.9444 L78.0008,1497.9444" fill="none" style="stroke:#181818;stroke-width:0.5;"/></g><g class="participant participant-head" data-participant="waiter"><rect fill="#E2E2F0" height="33.0679" rx="2.5" ry="2.5" style="stroke:#444444;stroke-width:0.5;" width="55.2018" x="135.0015" y="90.0679"/><text fill="#000000" font-family="sans-serif" font-size="14" lengthAdjust="spacing" textLength="41.2018" x="142.0015" y="112.0339">waiter</text></g><g class="participant participant-tail" data-participant="waiter"><rect fill="#E2E2F0" height="33.0679" rx="2.5" ry="2.5" style="stroke:#444444;stroke-width:0.5;" width="55.2018" x="135.0015" y="1420.3765"/><text fill="#000000" font-family="sans-serif" font-size="14" lengthAdjust="spacing" textLength="41.2018" x="142.0015" y="1442.3424">waiter</text></g><g class="participant participant-head" data-participant="hery"><rect fill="#E2E2F0" height="33.0679" rx="2.5" ry="2.5" style="stroke:#444444;stroke-width:0.5;" width="43.4699" x="200.2034" y="90.0679"/><text fill="#000000" font-family="sans-serif" font-size="14" lengthAdjust="spacing" textLength="29.4699" x="207.2034" y="112.0339">hery</text></g><g class="participant participant-tail" data-participant="hery"><rect fill="#E2E2F0" height="33.0679" rx="2.5" ry="2.5" style="stroke:#444444;stroke-width:0.5;" width="43.4699" x="200.2034" y="1420.3765"/><text fill="#000000" font-family="sans-serif" font-size="14" lengthAdjust="spacing" textLength="29.4699" x="207.2034" y="1442.3424">hery</text></g><g class="participant participant-head" data-participant="doorman"><rect fill="#E2E2F0" height="33.0679" rx="2.5" ry="2.5" style="stroke:#444444;stroke-width:0.5;" width="74.9278" x="295.8575" y="90.0679"/><text fill="#000000" font-family="sans-serif" font-size="14" lengthAdjust="spacing" textLength="60.9278" x="302.8575" y="112.0339">doorman</text></g><g class="participant participant-tail" data-participant="doorman"><rect fill="#E2E2F0" height="33.0679" rx="2.5" ry="2.5" style="stroke:#444444;stroke-width:0.5;" width="74.9278" x="295.8575" y="1420.3765"/><text fill="#000000" font-family="sans-serif" font-size="14" lengthAdjust="spacing" textLength="60.9278" x="302.8575" y="1442.3424">doorman</text></g><g class="participant participant-head" data-participant="raise"><rect fill="#E2E2F0" height="33.0679" rx="2.5" ry="2.5" style="stroke:#444444;stroke-width:0.5;" width="45.8499" x="426.5115" y="90.0679"/><text fill="#000000" font-family="sans-serif" font-size="14" lengthAdjust="spacing" textLength="31.8499" x="433.5115" y="112.0339">raise</text></g><g class="participant participant-tail" data-participant="raise"><rect fill="#E2E2F0" height="33.0679" rx="2.5" ry="2.5" style="stroke:#444444;stroke-width:0.5;" width="45.8499" x="426.5115" y="1420.3765"/><text fill="#000000" font-family="sans-serif" font-size="14" lengthAdjust="spacing" textLength="31.8499" x="433.5115" y="1442.3424">raise</text></g><g class="participant participant-head" data-participant="lay"><rect fill="#E2E2F0" height="33.0679" rx="2.5" ry="2.5" style="stroke:#444444;stroke-width:0.5;" width="32.6059" x="576.9676" y="90.0679"/><text fill="#000000" font-family="sans-serif" font-size="14" lengthAdjust="spacing" textLength="18.6059" x="583.9676" y="112.0339">lay</text></g><g class="participant participant-tail" data-participant="lay"><rect fill="#E2E2F0" height="33.0679" rx="2.5" ry="2.5" style="stroke:#444444;stroke-width:0.5;" width="32.6059" x="576.9676" y="1420.3765"/><text fill="#000000" font-family="sans-serif" font-size="14" lengthAdjust="spacing" textLength="18.6059" x="583.9676" y="1442.3424">lay</text></g><g class="participant participant-head" data-participant="weaver"><rect fill="#E2E2F0" height="33.0679" rx="2.5" ry="2.5" style="stroke:#444444;stroke-width:0.5;" width="61.5438" x="684.5157" y="90.0679"/><text fill="#000000" font-family="sans-serif" font-size="14" lengthAdjust="spacing" textLength="47.5438" x="691.5157" y="112.0339">weaver</text></g><g class="participant participant-tail" data-participant="weaver"><rect fill="#E2E2F0" height="33.0679" rx="2.5" ry="2.5" style="stroke:#444444;stroke-width:0.5;" width="61.5438" x="684.5157" y="1420.3765"/><text fill="#000000" font-family="sans-serif" font-size="14" lengthAdjust="spacing" textLength="47.5438" x="691.5157" y="1442.3424">weaver</text></g><g class="participant participant-head" data-participant="judge"><rect fill="#E2E2F0" height="33.0679" rx="2.5" ry="2.5" style="stroke:#444444;stroke-width:0.5;" width="51.3799" x="812.1998" y="90.0679"/><text fill="#000000" font-family="sans-serif" font-size="14" lengthAdjust="spacing" textLength="37.3799" x="819.1998" y="112.0339">judge</text></g><g class="participant participant-tail" data-participant="judge"><rect fill="#E2E2F0" height="33.0679" rx="2.5" ry="2.5" style="stroke:#444444;stroke-width:0.5;" width="51.3799" x="812.1998" y="1420.3765"/><text fill="#000000" font-family="sans-serif" font-size="14" lengthAdjust="spacing" textLength="37.3799" x="819.1998" y="1442.3424">judge</text></g><g class="participant participant-head" data-participant="yaml"><text fill="#000000" font-family="sans-serif" font-size="14" lengthAdjust="spacing" textLength="67.1857" x="925.914" y="120.0339">YAML files</text><path d="M944.5069,69.0679 C944.5069,59.0679 962.5069,59.0679 962.5069,59.0679 C962.5069,59.0679 980.5069,59.0679 980.5069,69.0679 L980.5069,95.0679 C980.5069,105.0679 962.5069,105.0679 962.5069,105.0679 C962.5069,105.0679 944.5069,105.0679 944.5069,95.0679 L944.5069,69.0679" fill="#E2E2F0" style="stroke:#181818;stroke-width:0.5;"/><path d="M944.5069,69.0679 C944.5069,79.0679 962.5069,79.0679 962.5069,79.0679 C962.5069,79.0679 980.5069,79.0679 980.5069,69.0679" fill="none" style="stroke:#181818;stroke-width:0.5;"/></g><g class="participant participant-tail" data-participant="yaml"><text fill="#000000" font-family="sans-serif" font-size="14" lengthAdjust="spacing" textLength="67.1857" x="925.914" y="1435.3424">YAML files</text><path d="M944.5069,1449.4444 C944.5069,1439.4444 962.5069,1439.4444 962.5069,1439.4444 C962.5069,1439.4444 980.5069,1439.4444 980.5069,1449.4444 L980.5069,1475.4444 C980.5069,1485.4444 962.5069,1485.4444 962.5069,1485.4444 C962.5069,1485.4444 944.5069,1485.4444 944.5069,1475.4444 L944.5069,1449.4444" fill="#E2E2F0" style="stroke:#181818;stroke-width:0.5;"/><path d="M944.5069,1449.4444 C944.5069,1459.4444 962.5069,1459.4444 962.5069,1459.4444 C962.5069,1459.4444 980.5069,1459.4444 980.5069,1449.4444" fill="none" style="stroke:#181818;stroke-width:0.5;"/></g><g class="participant participant-head" data-participant="secrets"><text fill="#000000" font-family="sans-serif" font-size="14" lengthAdjust="spacing" textLength="86.2677" x="1009.0997" y="120.0339">Secret Stores</text><path d="M1037.2336,69.0679 C1037.2336,59.0679 1055.2336,59.0679 1055.2336,59.0679 C1055.2336,59.0679 1073.2336,59.0679 1073.2336,69.0679 L1073.2336,95.0679 C1073.2336,105.0679 1055.2336,105.0679 1055.2336,105.0679 C1055.2336,105.0679 1037.2336,105.0679 1037.2336,95.0679 L1037.2336,69.0679" fill="#E2E2F0" style="stroke:#181818;stroke-width:0.5;"/><path d="M1037.2336,69.0679 C1037.2336,79.0679 1055.2336,79.0679 1055.2336,79.0679 C1055.2336,79.0679 1073.2336,79.0679 1073.2336,69.0679" fill="none" style="stroke:#181818;stroke-width:0.5;"/></g><g class="participant participant-tail" data-participant="secrets"><text fill="#000000" font-family="sans-serif" font-size="14" lengthAdjust="spacing" textLength="86.2677" x="1009.0997" y="1435.3424">Secret Stores</text><path d="M1037.2336,1449.4444 C1037.2336,1439.4444 1055.2336,1439.4444 1055.2336,1439.4444 C1055.2336,1439.4444 1073.2336,1439.4444 1073.2336,1449.4444 L1073.2336,1475.4444 C1073.2336,1485.4444 1055.2336,1485.4444 1055.2336,1485.4444 C1055.2336,1485.4444 1037.2336,1485.4444 1037.2336,1475.4444 L1037.2336,1449.4444" fill="#E2E2F0" style="stroke:#181818;stroke-width:0.5;"/><path d="M1037.2336,1449.4444 C1037.2336,1459.4444 1055.2336,1459.4444 1055.2336,1459.4444 C1055.2336,1459.4444 1073.2336,1459.4444 1073.2336,1449.4444" fill="none" style="stroke:#181818;stroke-width:0.5;"/></g><g class="participant participant-head" data-participant="cloud"><rect fill="#E2E2F0" height="33.0679" rx="2.5" ry="2.5" style="stroke:#444444;stroke-width:0.5;" width="111.5656" x="1111.3674" y="90.0679"/><text fill="#000000" font-family="sans-serif" font-size="14" lengthAdjust="spacing" textLength="97.5656" x="1118.3674" y="112.0339">Cloud Provider</text></g><g class="participant participant-tail" data-participant="cloud"><rect fill="#E2E2F0" height="33.0679" rx="2.5" ry="2.5" style="stroke:#444444;stroke-width:0.5;" width="111.5656" x="1111.3674" y="1420.3765"/><text fill="#000000" font-family="sans-serif" font-size="14" lengthAdjust="spacing" textLength="97.5656" x="1118.3674" y="1442.3424">Cloud Provider</text></g><rect fill="#EEEEEE" height="3" style="stroke:#EEEEEE;stroke-width:1;" width="1227.9331" x="0" y="155.9888"/><line style="stroke:#000000;stroke-width:1;" x1="0" x2="1227.9331" y1="155.9888" y2="155.9888"/><line style="stroke:#000000;stroke-width:1;" x1="0" x2="1227.9331" y1="158.9888" y2="158.9888"/><rect fill="#EEEEEE" height="25.706" style="stroke:#000000;stroke-width:2;" width="169.4801" x="529.2265" y="144.1358"/><text fill="#000000" font-family="sans-serif" font-size="13" font-weight="bold" lengthAdjust="spacing" textLength="152.1001" x="535.2265" y="162.0328">1. Define Requirements</text><g class="message" data-participant-1="user" data-participant-2="hery"><polygon fill="#181818" points="209.9383,217.2539,219.9383,221.2539,209.9383,225.2539,213.9383,221.2539" style="stroke:#181818;stroke-width:1;"/><line style="stroke:#181818;stroke-width:1.5;" x1="65.0008" x2="215.9383" y1="221.2539" y2="221.2539"/><text fill="#000000" font-family="sans-serif" font-size="13" lengthAdjust="spacing" textLength="88.8811" x="72.0008" y="197.7389">hery entity get</text><text fill="#000000" font-family="sans-serif" font-size="13" lengthAdjust="spacing" textLength="99.3071" x="72.0008" y="215.4449">--collection prod</text></g><g class="message" data-participant-1="hery" data-participant-2="yaml"><polygon fill="#181818" points="950.5069,248.9599,960.5069,252.9599,950.5069,256.9599,954.5069,252.9599" style="stroke:#181818;stroke-width:1;"/><line style="stroke:#181818;stroke-width:1.5;" x1="221.9383" x2="956.5069" y1="252.9599" y2="252.9599"/><text fill="#000000" font-family="sans-serif" font-size="13" lengthAdjust="spacing" textLength="116.7531" x="228.9383" y="247.1509">Read YAML entities</text></g><g class="message" data-participant-1="yaml" data-participant-2="hery"><polygon fill="#181818" points="232.9383,280.6659,222.9383,284.6659,232.9383,288.6659,228.9383,284.6659" style="stroke:#181818;stroke-width:1;"/><line style="stroke:#181818;stroke-width:1.5;stroke-dasharray:2,2;" x1="226.9383" x2="961.5069" y1="284.6659" y2="284.6659"/><text fill="#000000" font-family="sans-serif" font-size="13" lengthAdjust="spacing" textLength="65.2861" x="238.9383" y="278.8569">Entity data</text></g><g class="message" data-participant-1="hery" data-participant-2="hery"><line style="stroke:#181818;stroke-width:1.5;" x1="221.9383" x2="263.9383" y1="334.0779" y2="334.0779"/><line style="stroke:#181818;stroke-width:1.5;" x1="263.9383" x2="263.9383" y1="334.0779" y2="347.0779"/><line style="stroke:#181818;stroke-width:1.5;" x1="222.9383" x2="263.9383" y1="347.0779" y2="347.0779"/><polygon fill="#181818" points="232.9383,343.0779,222.9383,347.0779,232.9383,351.0779,228.9383,347.0779" style="stroke:#181818;stroke-width:1;"/><text fill="#000000" font-family="sans-serif" font-size="13" lengthAdjust="spacing" textLength="97.3831" x="228.9383" y="310.5629">Validate against</text><text fill="#000000" font-family="sans-serif" font-size="13" lengthAdjust="spacing" textLength="82.2901" x="228.9383" y="328.2689">JSON Schema</text></g><g class="message" data-participant-1="hery" data-participant-2="user"><polygon fill="#181818" points="76.0008,374.784,66.0008,378.784,76.0008,382.784,72.0008,378.784" style="stroke:#181818;stroke-width:1;"/><line style="stroke:#181818;stroke-width:1.5;stroke-dasharray:2,2;" x1="70.0008" x2="220.9383" y1="378.784" y2="378.784"/><text fill="#000000" font-family="sans-serif" font-size="13" lengthAdjust="spacing" textLength="102.9731" x="82.0008" y="372.975">JSON: entity data</text></g><rect fill="#EEEEEE" height="3" style="stroke:#EEEEEE;stroke-width:1;" width="1227.9331" x="0" y="408.637"/><line style="stroke:#000000;stroke-width:1;" x1="0" x2="1227.9331" y1="408.637" y2="408.637"/><line style="stroke:#000000;stroke-width:1;" x1="0" x2="1227.9331" y1="411.637" y2="411.637"/><rect fill="#EEEEEE" height="25.706" style="stroke:#000000;stroke-width:2;" width="132.3131" x="547.81" y="396.784"/><text fill="#000000" font-family="sans-serif" font-size="13" font-weight="bold" lengthAdjust="spacing" textLength="114.9331" x="553.81" y="414.681">2. Resolve Secrets</text><g class="message" data-participant-1="user" data-participant-2="doorman"><polygon fill="#181818" points="321.3214,452.196,331.3214,456.196,321.3214,460.196,325.3214,456.196" style="stroke:#181818;stroke-width:1;"/><line style="stroke:#181818;stroke-width:1.5;" x1="65.0008" x2="327.3214" y1="456.196" y2="456.196"/><text fill="#000000" font-family="sans-serif" font-size="13" lengthAdjust="spacing" textLength="104.0391" x="72.0008" y="450.387">doorman resolve</text></g><g class="message" data-participant-1="doorman" data-participant-2="secrets"><polygon fill="#181818" points="1043.2336,501.608,1053.2336,505.608,1043.2336,509.608,1047.2336,505.608" style="stroke:#181818;stroke-width:1;"/><line style="stroke:#181818;stroke-width:1.5;" x1="333.3214" x2="1049.2336" y1="505.608" y2="505.608"/><text fill="#000000" font-family="sans-serif" font-size="13" lengthAdjust="spacing" textLength="53.677" x="340.3214" y="482.093">Fetch via</text><text fill="#000000" font-family="sans-serif" font-size="13" lengthAdjust="spacing" textLength="106.4441" x="340.3214" y="499.799">Doorman plugins</text></g><g class="message" data-participant-1="secrets" data-participant-2="doorman"><polygon fill="#181818" points="344.3214,533.314,334.3214,537.314,344.3214,541.314,340.3214,537.314" style="stroke:#181818;stroke-width:1;"/><line style="stroke:#181818;stroke-width:1.5;stroke-dasharray:2,2;" x1="338.3214" x2="1054.2336" y1="537.314" y2="537.314"/><text fill="#000000" font-family="sans-serif" font-size="13" lengthAdjust="spacing" textLength="80.3271" x="350.3214" y="531.505">Secret values</text></g><g class="message" data-participant-1="doorman" data-participant-2="doorman"><line style="stroke:#181818;stroke-width:1.5;" x1="333.3214" x2="375.3214" y1="586.7261" y2="586.7261"/><line style="stroke:#181818;stroke-width:1.5;" x1="375.3214" x2="375.3214" y1="586.7261" y2="599.7261"/><line style="stroke:#181818;stroke-width:1.5;" x1="334.3214" x2="375.3214" y1="599.7261" y2="599.7261"/><polygon fill="#181818" points="344.3214,595.7261,334.3214,599.7261,344.3214,603.7261,340.3214,599.7261" style="stroke:#181818;stroke-width:1;"/><text fill="#000000" font-family="sans-serif" font-size="13" lengthAdjust="spacing" textLength="102.1151" x="340.3214" y="563.2111">Cache encrypted</text><text fill="#000000" font-family="sans-serif" font-size="13" lengthAdjust="spacing" textLength="66.2741" x="340.3214" y="580.9171">in memory</text></g><g class="message" data-participant-1="doorman" data-participant-2="user"><polygon fill="#181818" points="76.0008,627.4321,66.0008,631.4321,76.0008,635.4321,72.0008,631.4321" style="stroke:#181818;stroke-width:1;"/><line style="stroke:#181818;stroke-width:1.5;stroke-dasharray:2,2;" x1="70.0008" x2="332.3214" y1="631.4321" y2="631.4321"/><text fill="#000000" font-family="sans-serif" font-size="13" lengthAdjust="spacing" textLength="122.4731" x="82.0008" y="625.6231">JSON: data + secrets</text></g><rect fill="#EEEEEE" height="3" style="stroke:#EEEEEE;stroke-width:1;" width="1227.9331" x="0" y="661.2851"/><line style="stroke:#000000;stroke-width:1;" x1="0" x2="1227.9331" y1="661.2851" y2="661.2851"/><line style="stroke:#000000;stroke-width:1;" x1="0" x2="1227.9331" y1="664.2851" y2="664.2851"/><rect fill="#EEEEEE" height="25.706" style="stroke:#000000;stroke-width:2;" width="189.1491" x="519.392" y="649.4321"/><text fill="#000000" font-family="sans-serif" font-size="13" font-weight="bold" lengthAdjust="spacing" textLength="171.7691" x="525.392" y="667.3291">3. Provision Infrastructure</text><g class="message" data-participant-1="user" data-participant-2="raise"><polygon fill="#181818" points="437.4365,704.8441,447.4365,708.8441,437.4365,712.8441,441.4365,708.8441" style="stroke:#181818;stroke-width:1;"/><line style="stroke:#181818;stroke-width:1.5;" x1="65.0008" x2="443.4365" y1="708.8441" y2="708.8441"/><text fill="#000000" font-family="sans-serif" font-size="13" lengthAdjust="spacing" textLength="89.6221" x="72.0008" y="703.0351">raise provision</text></g><g class="message" data-participant-1="raise" data-participant-2="cloud"><polygon fill="#181818" points="1155.1502,754.2562,1165.1502,758.2562,1155.1502,762.2562,1159.1502,758.2562" style="stroke:#181818;stroke-width:1;"/><line style="stroke:#181818;stroke-width:1.5;" x1="449.4365" x2="1161.1502" y1="758.2562" y2="758.2562"/><text fill="#000000" font-family="sans-serif" font-size="13" lengthAdjust="spacing" textLength="91.5591" x="456.4365" y="734.7411">Create servers,</text><text fill="#000000" font-family="sans-serif" font-size="13" lengthAdjust="spacing" textLength="110.3181" x="456.4365" y="752.4472">networks, storage</text></g><g class="message" data-participant-1="cloud" data-participant-2="raise"><polygon fill="#181818" points="460.4365,785.9622,450.4365,789.9622,460.4365,793.9622,456.4365,789.9622" style="stroke:#181818;stroke-width:1;"/><line style="stroke:#181818;stroke-width:1.5;stroke-dasharray:2,2;" x1="454.4365" x2="1166.1502" y1="789.9622" y2="789.9622"/><text fill="#000000" font-family="sans-serif" font-size="13" lengthAdjust="spacing" textLength="135.2391" x="466.4365" y="784.1532">Provisioned resources</text></g><g class="message" data-participant-1="raise" data-participant-2="user"><polygon fill="#181818" points="76.0008,817.6682,66.0008,821.6682,76.0008,825.6682,72.0008,821.6682" style="stroke:#181818;stroke-width:1;"/><line style="stroke:#181818;stroke-width:1.5;stroke-dasharray:2,2;" x1="70.0008" x2="448.4365" y1="821.6682" y2="821.6682"/><text fill="#000000" font-family="sans-serif" font-size="13" lengthAdjust="spacing" textLength="109.7331" x="82.0008" y="815.8592">JSON: infra details</text></g><rect fill="#EEEEEE" height="3" style="stroke:#EEEEEE;stroke-width:1;" width="1227.9331" x="0" y="851.5212"/><line style="stroke:#000000;stroke-width:1;" x1="0" x2="1227.9331" y1="851.5212" y2="851.5212"/><line style="stroke:#000000;stroke-width:1;" x1="0" x2="1227.9331" y1="854.5212" y2="854.5212"/><rect fill="#EEEEEE" height="25.706" style="stroke:#000000;stroke-width:2;" width="157.312" x="535.3105" y="839.6682"/><text fill="#000000" font-family="sans-serif" font-size="13" font-weight="bold" lengthAdjust="spacing" textLength="139.932" x="541.3105" y="857.5652">4. Install Applications</text><g class="message" data-participant-1="user" data-participant-2="lay"><polygon fill="#181818" points="581.2706,895.0802,591.2706,899.0802,581.2706,903.0802,585.2706,899.0802" style="stroke:#181818;stroke-width:1;"/><line style="stroke:#181818;stroke-width:1.5;" x1="65.0008" x2="587.2706" y1="899.0802" y2="899.0802"/><text fill="#000000" font-family="sans-serif" font-size="13" lengthAdjust="spacing" textLength="56.966" x="72.0008" y="893.2712">lay install</text></g><g class="message" data-participant-1="lay" data-participant-2="raise"><polygon fill="#181818" points="460.4365,944.4923,450.4365,948.4923,460.4365,952.4923,456.4365,948.4923" style="stroke:#181818;stroke-width:1;"/><line style="stroke:#181818;stroke-width:1.5;" x1="454.4365" x2="592.2706" y1="948.4923" y2="948.4923"/><text fill="#000000" font-family="sans-serif" font-size="13" lengthAdjust="spacing" textLength="66.3521" x="466.4365" y="924.9772">Connect to</text><text fill="#000000" font-family="sans-serif" font-size="13" lengthAdjust="spacing" textLength="119.8341" x="466.4365" y="942.6833">provisioned servers</text></g><g class="message" data-participant-1="lay" data-participant-2="lay"><line style="stroke:#181818;stroke-width:1.5;" x1="593.2706" x2="635.2706" y1="997.9043" y2="997.9043"/><line style="stroke:#181818;stroke-width:1.5;" x1="635.2706" x2="635.2706" y1="997.9043" y2="1010.9043"/><line style="stroke:#181818;stroke-width:1.5;" x1="594.2706" x2="635.2706" y1="1010.9043" y2="1010.9043"/><polygon fill="#181818" points="604.2706,1006.9043,594.2706,1010.9043,604.2706,1014.9043,600.2706,1010.9043" style="stroke:#181818;stroke-width:1;"/><text fill="#000000" font-family="sans-serif" font-size="13" lengthAdjust="spacing" textLength="98.0591" x="600.2706" y="974.3893">Install packages</text><text fill="#000000" font-family="sans-serif" font-size="13" lengthAdjust="spacing" textLength="108.0171" x="600.2706" y="992.0953">via apt/yum/brew</text></g><g class="message" data-participant-1="lay" data-participant-2="user"><polygon fill="#181818" points="76.0008,1038.6103,66.0008,1042.6103,76.0008,1046.6103,72.0008,1042.6103" style="stroke:#181818;stroke-width:1;"/><line style="stroke:#181818;stroke-width:1.5;stroke-dasharray:2,2;" x1="70.0008" x2="592.2706" y1="1042.6103" y2="1042.6103"/><text fill="#000000" font-family="sans-serif" font-size="13" lengthAdjust="spacing" textLength="122.1091" x="82.0008" y="1036.8013">JSON: installed apps</text></g><rect fill="#EEEEEE" height="3" style="stroke:#EEEEEE;stroke-width:1;" width="1227.9331" x="0" y="1072.4633"/><line style="stroke:#000000;stroke-width:1;" x1="0" x2="1227.9331" y1="1072.4633" y2="1072.4633"/><line style="stroke:#000000;stroke-width:1;" x1="0" x2="1227.9331" y1="1075.4633" y2="1075.4633"/><rect fill="#EEEEEE" height="25.706" style="stroke:#000000;stroke-width:2;" width="186.2631" x="520.835" y="1060.6103"/><text fill="#000000" font-family="sans-serif" font-size="13" font-weight="bold" lengthAdjust="spacing" textLength="168.8831" x="526.835" y="1078.5073">5. Generate Configuration</text><g class="message" data-participant-1="user" data-participant-2="weaver"><polygon fill="#181818" points="703.2876,1133.7284,713.2876,1137.7284,703.2876,1141.7284,707.2876,1137.7284" style="stroke:#181818;stroke-width:1;"/><line style="stroke:#181818;stroke-width:1.5;" x1="65.0008" x2="709.2876" y1="1137.7284" y2="1137.7284"/><text fill="#000000" font-family="sans-serif" font-size="13" lengthAdjust="spacing" textLength="86.307" x="72.0008" y="1114.2133">weaver weave</text><text fill="#000000" font-family="sans-serif" font-size="13" lengthAdjust="spacing" textLength="156.8971" x="72.0008" y="1131.9194">--template-dir ./templates</text></g><g class="message" data-participant-1="weaver" data-participant-2="weaver"><line style="stroke:#181818;stroke-width:1.5;" x1="715.2876" x2="757.2876" y1="1187.1404" y2="1187.1404"/><line style="stroke:#181818;stroke-width:1.5;" x1="757.2876" x2="757.2876" y1="1187.1404" y2="1200.1404"/><line style="stroke:#181818;stroke-width:1.5;" x1="716.2876" x2="757.2876" y1="1200.1404" y2="1200.1404"/><polygon fill="#181818" points="726.2876,1196.1404,716.2876,1200.1404,726.2876,1204.1404,722.2876,1200.1404" style="stroke:#181818;stroke-width:1;"/><text fill="#000000" font-family="sans-serif" font-size="13" lengthAdjust="spacing" textLength="108.6021" x="722.2876" y="1163.6254">Render templates</text><text fill="#000000" font-family="sans-serif" font-size="13" lengthAdjust="spacing" textLength="95.0691" x="722.2876" y="1181.3314">with entity data</text></g><g class="message" data-participant-1="weaver" data-participant-2="user"><polygon fill="#181818" points="76.0008,1227.8464,66.0008,1231.8464,76.0008,1235.8464,72.0008,1231.8464" style="stroke:#181818;stroke-width:1;"/><line style="stroke:#181818;stroke-width:1.5;stroke-dasharray:2,2;" x1="70.0008" x2="714.2876" y1="1231.8464" y2="1231.8464"/><text fill="#000000" font-family="sans-serif" font-size="13" lengthAdjust="spacing" textLength="134.3031" x="82.0008" y="1226.0374">Generated config files</text></g><rect fill="#EEEEEE" height="3" style="stroke:#EEEEEE;stroke-width:1;" width="1227.9331" x="0" y="1261.6994"/><line style="stroke:#000000;stroke-width:1;" x1="0" x2="1227.9331" y1="1261.6994" y2="1261.6994"/><line style="stroke:#000000;stroke-width:1;" x1="0" x2="1227.9331" y1="1264.6994" y2="1264.6994"/><rect fill="#EEEEEE" height="25.706" style="stroke:#000000;stroke-width:2;" width="146.6391" x="540.647" y="1249.8464"/><text fill="#000000" font-family="sans-serif" font-size="13" font-weight="bold" lengthAdjust="spacing" textLength="129.2591" x="546.647" y="1267.7434">6. Audit Compliance</text><g class="message" data-participant-1="user" data-participant-2="judge"><polygon fill="#181818" points="825.8897,1305.2584,835.8897,1309.2584,825.8897,1313.2584,829.8897,1309.2584" style="stroke:#181818;stroke-width:1;"/><line style="stroke:#181818;stroke-width:1.5;" x1="65.0008" x2="831.8897" y1="1309.2584" y2="1309.2584"/><text fill="#000000" font-family="sans-serif" font-size="13" lengthAdjust="spacing" textLength="69.4591" x="72.0008" y="1303.4494">judge audit</text></g><g class="message" data-participant-1="judge" data-participant-2="judge"><line style="stroke:#181818;stroke-width:1.5;" x1="837.8897" x2="879.8897" y1="1340.9645" y2="1340.9645"/><line style="stroke:#181818;stroke-width:1.5;" x1="879.8897" x2="879.8897" y1="1340.9645" y2="1353.9645"/><line style="stroke:#181818;stroke-width:1.5;" x1="838.8897" x2="879.8897" y1="1353.9645" y2="1353.9645"/><polygon fill="#181818" points="848.8897,1349.9645,838.8897,1353.9645,848.8897,1357.9645,844.8897,1353.9645" style="stroke:#181818;stroke-width:1;"/><text fill="#000000" font-family="sans-serif" font-size="13" lengthAdjust="spacing" textLength="110.6171" x="844.8897" y="1335.1555">Run judge plugins</text></g><g class="message" data-participant-1="judge" data-participant-2="user"><polygon fill="#181818" points="76.0008,1399.3765,66.0008,1403.3765,76.0008,1407.3765,72.0008,1403.3765" style="stroke:#181818;stroke-width:1;"/><line style="stroke:#181818;stroke-width:1.5;stroke-dasharray:2,2;" x1="70.0008" x2="836.8897" y1="1403.3765" y2="1403.3765"/><text fill="#000000" font-family="sans-serif" font-size="13" lengthAdjust="spacing" textLength="113.8411" x="82.0008" y="1379.8615">Compliance report</text><text fill="#000000" font-family="sans-serif" font-size="13" lengthAdjust="spacing" textLength="121.0951" x="82.0008" y="1397.5675">(pass/fail per check)</text></g><!--SRC=[RLHDRnCn4BtxLupA1KIJ26WvL2fII5i40bgb20afbwbtafXuRMDx4tBZH_0B-IMCxTrajt29P_FUl7tpuOqgQe9fZPL6-FFhDzmfHrePWkkV99keh84RRNT2X8qo3ZtM4EX7GqRIr7kx-x9MScCe17WnFlyFwGvzL58vDF6jzHNvcTNMmvEpipCXK4QEJwveU-i2N9iLlvZy2M209f0NxfWC9pjKiGLBE8JNvFSPJC4GggprDPgCjl6Gu545od2EXg36eild8qE4syvG3eVmzwPQ5T4S2L5Xn0SC12VVffy-mb9f2XdVOwrxw3r9Jn7kkJSj8UH_mb1_fcrJmPstMrMrDcJwIuZBInu6ND4opN7EWr2UQZ8nmEMbI8s5qPlS9hWe1sCgxc55SM568scr9fb7xxojHAPmHhB96NF22d85EKrH41aP7KMlYrugwP3TGbzHA_wV05UeJE0NVhY__GptSarrHsPsTda12Rlex6MvLDpBCPi8Lcy9Igy6XRKJvkmkyeKikcScjHrbqWr5kOQjmeMvQd6d6zx483hIQA3QZcUBkk7IUvf7oWov7BOj_Tv5gXP66QYfjhoO1_xZ8bDryFmmwbJdgt4PRqYZU6-M7aFqZOoDftx1UMTPfvokon3bcGbvBP8jJwdpdCRB6auNnb3SMRy9fn1usP2Nj517FTM30wfo8nilkUnM-t4HAfc4YY8gNMeu6xFp455hc3gdbSIqM8E1ySLYWVIh2bEak6TXPjcfZ13jmhYUdRQGZbvqkhSvb1kkA2mCpnRGnSc-gISFddQ5_w_rdCUow5pnVZw6TsJ8fwQnXwLQDJxRxxilLvzbsY0VwHf5gftcr56bF8mdtMCGBR6VEoV3TnWEd8NPgRWUB7wNTVJTUQj0PdFbYvATlnx3jAbKPDkig90_n7tF-OF42kN4n1Gbxe7pnhHnTnzQoj51JzsJivvlyrE78KoMF7zmpE5x83VFn5y0]--></g></svg>