<svg xmlns="http://www.w3.org/2000/svg" xmlns:xlink="http://www.w3.org/1999/xlink" contentStyleType="text/css" data-diagram-type="SEQUENCE" height="1271px" preserveAspectRatio="none" style="width:713px;height:1271px;background:#FFFFFF;" version="1.1" viewBox="0 0 713 1271" width="713px" zoomAndPan="magnify"><title>Amadla &#8212; Secret Resolution Flow</title><defs/><g><text fill="#000000" font-family="sans-serif" font-size="14" font-weight="bold" lengthAdjust="spacing" textLength="233.3231" x="236.0183" y="29.9659">Amadla &#8212; Secret Resolution Flow</text><g><title>Pipeline</title><rect fill="#000000" fill-opacity="0.00000" height="1042.0046" width="8" x="51.3788" y="129.2038"/><line style="stroke:#181818;stroke-width:0.5;stroke-dasharray:5,5;" x1="55" x2="55" y1="129.2038" y2="1171.2083"/></g><g><title>doorman</title><rect fill="#000000" fill-opacity="0.00000" height="1042.0046" width="8" x="166.2359" y="129.2038"/><line style="stroke:#181818;stroke-width:0.5;stroke-dasharray:5,5;" x1="169.772" x2="169.772" y1="129.2038" y2="1171.2083"/></g><g><title>Encrypted</title><rect fill="#000000" fill-opacity="0.00000" height="1042.0046" width="8" x="329.102" y="129.2038"/><line style="stroke:#181818;stroke-width:0.5;stroke-dasharray:5,5;" x1="332.9781" x2="332.9781" y1="129.2038" y2="1171.2083"/></g><g><title>doorman-vault</title><rect fill="#000000" fill-opacity="0.00000" height="1042.0046" width="8" x="435.0857" y="129.2038"/><line style="stroke:#181818;stroke-width:0.5;stroke-dasharray:5,5;" x1="438.2259" x2="438.2259" y1="129.2038" y2="1171.2083"/></g><g><title>Vault .</title><rect fill="#000000" fill-opacity="0.00000" height="1042.0046" width="8" x="663.6018" y="129.2038"/><line style="stroke:#181818;stroke-width:0.5;stroke-dasharray:5,5;" x1="666.844" x2="666.844" y1="129.2038" y2="1171.2083"/></g><g class="participant participant-head" data-participant="pipeline"><rect fill="#E2E2F0" height="52.1358" rx="2.5" ry="2.5" style="stroke:#444444;stroke-width:0.5;" width="100.7576" x="5" y="76.0679"/><text fill="#000000" font-family="sans-serif" font-size="14" lengthAdjust="spacing" textLength="52.3598" x="29.1989" y="98.0339">Pipeline</text><text fill="#000000" font-family="sans-serif" font-size="14" lengthAdjust="spacing" textLength="86.7576" x="12" y="117.1018">(weaver, etc.)</text></g><g class="participant participant-tail" data-participant="pipeline"><rect fill="#E2E2F0" height="52.1358" rx="2.5" ry="2.5" style="stroke:#444444;stroke-width:0.5;" width="100.7576" x="5" y="1170.2083"/><text fill="#000000" font-family="sans-serif" font-size="14" lengthAdjust="spacing" textLength="52.3598" x="29.1989" y="1192.1742">Pipeline</text><text fill="#000000" font-family="sans-serif" font-size="14" lengthAdjust="spacing" textLength="86.7576" x="12" y="1211.2422">(weaver, etc.)</text></g><g class="participant participant-head" data-participant="doorman"><rect fill="#E2E2F0" height="52.1358" rx="2.5" ry="2.5" style="stroke:#444444;stroke-width:0.5;" width="74.9278" x="132.772" y="76.0679"/><text fill="#000000" font-family="sans-serif" font-size="14" lengthAdjust="spacing" textLength="60.9278" x="139.772" y="98.0339">doorman</text><text fill="#000000" font-family="sans-serif" font-size="14" lengthAdjust="spacing" textLength="54.5718" x="142.95" y="117.1018">daemon</text></g><g class="participant participant-tail" data-participant="doorman"><rect fill="#E2E2F0" height="52.1358" rx="2.5" ry="2.5" style="stroke:#444444;stroke-width:0.5;" width="74.9278" x="132.772" y="1170.2083"/><text fill="#000000" font-family="sans-serif" font-size="14" lengthAdjust="spacing" textLength="60.9278" x="139.772" y="1192.1742">doorman</text><text fill="#000000" font-family="sans-serif" font-size="14" lengthAdjust="spacing" textLength="54.5718" x="142.95" y="1211.2422">daemon</text></g><g class="participant participant-head" data-participant="cache"><rect fill="#E2E2F0" height="52.1358" rx="2.5" ry="2.5" style="stroke:#444444;stroke-width:0.5;" width="80.2477" x="292.9781" y="76.0679"/><text fill="#000000" font-family="sans-serif" font-size="14" lengthAdjust="spacing" textLength="66.2477" x="299.9781" y="98.0339">Encrypted</text><text fill="#000000" font-family="sans-serif" font-size="14" lengthAdjust="spacing" textLength="39.9698" x="313.1171" y="117.1018">Cache</text></g><g class="participant participant-tail" data-participant="cache"><rect fill="#E2E2F0" height="52.1358" rx="2.5" ry="2.5" style="stroke:#444444;stroke-width:0.5;" width="80.2477" x="292.9781" y="1170.2083"/><text fill="#000000" font-family="sans-serif" font-size="14" lengthAdjust="spacing" textLength="66.2477" x="299.9781" y="1192.1742">Encrypted</text><text fill="#000000" font-family="sans-serif" font-size="14" lengthAdjust="spacing" textLength="39.9698" x="313.1171" y="1211.2422">Cache</text></g><g class="participant participant-head" data-participant="plugin"><rect fill="#E2E2F0" height="52.1358" rx="2.5" ry="2.5" style="stroke:#444444;stroke-width:0.5;" width="111.7196" x="383.2259" y="76.0679"/><text fill="#000000" font-family="sans-serif" font-size="14" lengthAdjust="spacing" textLength="97.7196" x="390.2259" y="98.0339">doorman-vault</text><text fill="#000000" font-family="sans-serif" font-size="14" lengthAdjust="spacing" textLength="41.7478" x="418.2118" y="117.1018">plugin</text></g><g class="participant participant-tail" data-participant="plugin"><rect fill="#E2E2F0" height="52.1358" rx="2.5" ry="2.5" style="stroke:#444444;stroke-width:0.5;" width="111.7196" x="383.2259" y="1170.2083"/><text fill="#000000" font-family="sans-serif" font-size="14" lengthAdjust="spacing" textLength="97.7196" x="390.2259" y="1192.1742">doorman-vault</text><text fill="#000000" font-family="sans-serif" font-size="14" lengthAdjust="spacing" textLength="41.7478" x="418.2118" y="1211.2422">plugin</text></g><g class="participant participant-head" data-participant="vault"><text fill="#000000" font-family="sans-serif" font-size="14" lengthAdjust="spacing" textLength="42.4198" x="643.3919" y="106.0339">Vault /</text><text fill="#000000" font-family="sans-serif" font-size="14" lengthAdjust="spacing" textLength="61.5158" x="633.844" y="125.1018">OpenBao</text><path d="M649.6018,55.0679 C649.6018,45.0679 667.6018,45.0679 667.6018,45.0679 C667.6018,45.0679 685.6018,45.0679 685.6018,55.0679 L685.6018,81.0679 C685.6018,91.0679 667.6018,91.0679 667.6018,91.0679 C667.6018,91.0679 649.6018,91.0679 649.6018,81.0679 L649.6018,55.0679" fill="#E2E2F0" style="stroke:#181818;stroke-width:0.5;"/><path d="M649.6018,55.0679 C649.6018,65.0679 667.6018,65.0679 667.6018,65.0679 C667.6018,65.0679 685.6018,65.0679 685.6018,55.0679" fill="none" style="stroke:#181818;stroke-width:0.5;"/></g><g class="participant participant-tail" data-participant="vault"><text fill="#000000" font-family="sans-serif" font-size="14" lengthAdjust="spacing" textLength="42.4198" x="643.3919" y="1185.1742">Vault /</text><text fill="#000000" font-family="sans-serif" font-size="14" lengthAdjust="spacing" textLength="61.5158" x="633.844" y="1204.2422">OpenBao</text><path d="M649.6018,1218.3441 C649.6018,1208.3441 667.6018,1208.3441 667.6018,1208.3441 C667.6018,1208.3441 685.6018,1208.3441 685.6018,1218.3441 L685.6018,1244.3441 C685.6018,1254.3441 667.6018,1254.3441 667.6018,1254.3441 C667.6018,1254.3441 649.6018,1254.3441 649.6018,1244.3441 L649.6018,1218.3441" fill="#E2E2F0" style="stroke:#181818;stroke-width:0.5;"/><path d="M649.6018,1218.3441 C649.6018,1228.3441 667.6018,1228.3441 667.6018,1228.3441 C667.6018,1228.3441 685.6018,1228.3441 685.6018,1218.3441" fill="none" style="stroke:#181818;stroke-width:0.5;"/></g><rect fill="#EEEEEE" height="3" style="stroke:#EEEEEE;stroke-width:1;" width="706.3597" x="0" y="161.0568"/><line style="stroke:#000000;stroke-width:1;" x1="0" x2="706.3597" y1="161.0568" y2="161.0568"/><line style="stroke:#000000;stroke-width:1;" x1="0" x2="706.3597" y1="164.0568" y2="164.0568"/><rect fill="#EEEEEE" height="25.706" style="stroke:#000000;stroke-width:2;" width="79.351" x="313.5043" y="149.2038"/><text fill="#000000" font-family="sans-serif" font-size="13" font-weight="bold" lengthAdjust="spacing" textLength="61.971" x="319.5043" y="167.1008">Cache Hit</text><g class="message" data-participant-1="pipeline" data-participant-2="doorman"><polygon fill="#181818" points="158.2359,222.3218,168.2359,226.3218,158.2359,230.3218,162.2359,226.3218" style="stroke:#181818;stroke-width:1;"/><line style="stroke:#181818;stroke-width:1.5;" x1="55.3788" x2="164.2359" y1="226.3218" y2="226.3218"/><text fill="#000000" font-family="sans-serif" font-size="13" lengthAdjust="spacing" textLength="90.8571" x="62.3788" y="202.8068">Resolve secret:</text><text fill="#000000" font-family="sans-serif" font-size="13" lengthAdjust="spacing" textLength="89.4401" x="62.3788" y="220.5128">"tls-certificate"</text></g><g class="message" data-participant-1="doorman" data-participant-2="cache"><polygon fill="#181818" points="321.102,254.0278,331.102,258.0278,321.102,262.0278,325.102,258.0278" style="stroke:#181818;stroke-width:1;"/><line style="stroke:#181818;stroke-width:1.5;" x1="170.2359" x2="327.102" y1="258.0278" y2="258.0278"/><text fill="#000000" font-family="sans-serif" font-size="13" lengthAdjust="spacing" textLength="138.3331" x="177.2359" y="252.2188">Lookup "tls-certificate"</text></g><g class="message" data-participant-1="cache" data-participant-2="doorman"><polygon fill="#181818" points="181.2359,285.7338,171.2359,289.7338,181.2359,293.7338,177.2359,289.7338" style="stroke:#181818;stroke-width:1;"/><line style="stroke:#181818;stroke-width:1.5;stroke-dasharray:2,2;" x1="175.2359" x2="332.102" y1="289.7338" y2="289.7338"/><text fill="#000000" font-family="sans-serif" font-size="13" lengthAdjust="spacing" textLength="120.0811" x="187.2359" y="283.9248">Found (not expired)</text></g><g class="message" data-participant-1="doorman" data-participant-2="cache"><polygon fill="#181818" points="321.102,317.4398,331.102,321.4398,321.102,325.4398,325.102,321.4398" style="stroke:#181818;stroke-width:1;"/><line style="stroke:#181818;stroke-width:1.5;" x1="170.2359" x2="327.102" y1="321.4398" y2="321.4398"/><text fill="#000000" font-family="sans-serif" font-size="13" lengthAdjust="spacing" textLength="83.7461" x="177.2359" y="315.6308">Decrypt value</text></g><g class="message" data-participant-1="cache" data-participant-2="doorman"><polygon fill="#181818" points="181.2359,349.1459,171.2359,353.1459,181.2359,357.1459,177.2359,353.1459" style="stroke:#181818;stroke-width:1;"/><line style="stroke:#181818;stroke-width:1.5;stroke-dasharray:2,2;" x1="175.2359" x2="332.102" y1="353.1459" y2="353.1459"/><text fill="#000000" font-family="sans-serif" font-size="13" lengthAdjust="spacing" textLength="94.0681" x="187.2359" y="347.3369">Plaintext secret</text></g><g class="message" data-participant-1="doorman" data-participant-2="pipeline"><polygon fill="#181818" points="66.3788,380.8519,56.3788,384.8519,66.3788,388.8519,62.3788,384.8519" style="stroke:#181818;stroke-width:1;"/><line style="stroke:#181818;stroke-width:1.5;stroke-dasharray:2,2;" x1="60.3788" x2="169.2359" y1="384.8519" y2="384.8519"/><text fill="#000000" font-family="sans-serif" font-size="13" lengthAdjust="spacing" textLength="74.1001" x="72.3788" y="379.0429">Secret value</text></g><rect fill="#EEEEEE" height="3" style="stroke:#EEEEEE;stroke-width:1;" width="706.3597" x="0" y="414.7049"/><line style="stroke:#000000;stroke-width:1;" x1="0" x2="706.3597" y1="414.7049" y2="414.7049"/><line style="stroke:#000000;stroke-width:1;" x1="0" x2="706.3597" y1="417.7049" y2="417.7049"/><rect fill="#EEEEEE" height="25.706" style="stroke:#000000;stroke-width:2;" width="88.9451" x="308.7073" y="402.8519"/><text fill="#000000" font-family="sans-serif" font-size="13" font-weight="bold" lengthAdjust="spacing" textLength="71.565" x="314.7073" y="420.7489">Cache Miss</text><g class="message" data-participant-1="pipeline" data-participant-2="doorman"><polygon fill="#181818" points="158.2359,475.9699,168.2359,479.9699,158.2359,483.9699,162.2359,479.9699" style="stroke:#181818;stroke-width:1;"/><line style="stroke:#181818;stroke-width:1.5;" x1="55.3788" x2="164.2359" y1="479.9699" y2="479.9699"/><text fill="#000000" font-family="sans-serif" font-size="13" lengthAdjust="spacing" textLength="90.8571" x="62.3788" y="456.4549">Resolve secret:</text><text fill="#000000" font-family="sans-serif" font-size="13" lengthAdjust="spacing" textLength="89.9731" x="62.3788" y="474.1609">"db-password"</text></g><g class="message" data-participant-1="doorman" data-participant-2="cache"><polygon fill="#181818" points="321.102,507.6759,331.102,511.6759,321.102,515.6759,325.102,511.6759" style="stroke:#181818;stroke-width:1;"/><line style="stroke:#181818;stroke-width:1.5;" x1="170.2359" x2="327.102" y1="511.6759" y2="511.6759"/><text fill="#000000" font-family="sans-serif" font-size="13" lengthAdjust="spacing" textLength="138.8661" x="177.2359" y="505.8669">Lookup "db-password"</text></g><g class="message" data-participant-1="cache" data-participant-2="doorman"><polygon fill="#181818" points="181.2359,539.382,171.2359,543.382,181.2359,547.382,177.2359,543.382" style="stroke:#181818;stroke-width:1;"/><line style="stroke:#181818;stroke-width:1.5;stroke-dasharray:2,2;" x1="175.2359" x2="332.102" y1="543.382" y2="543.382"/><text fill="#000000" font-family="sans-serif" font-size="13" lengthAdjust="spacing" textLength="62.2181" x="187.2359" y="537.573">Not found</text></g><g class="message" data-participant-1="doorman" data-participant-2="plugin"><polygon fill="#181818" points="427.0857,588.794,437.0857,592.794,427.0857,596.794,431.0857,592.794" style="stroke:#181818;stroke-width:1;"/><line style="stroke:#181818;stroke-width:1.5;" x1="170.2359" x2="433.0857" y1="592.794" y2="592.794"/><text fill="#000000" font-family="sans-serif" font-size="13" lengthAdjust="spacing" textLength="58.123" x="177.2359" y="569.279">IPC: fetch</text><text fill="#000000" font-family="sans-serif" font-size="13" lengthAdjust="spacing" textLength="164.1121" x="177.2359" y="586.985">"secret/data/db-password"</text></g><g class="message" data-participant-1="plugin" data-participant-2="vault"><polygon fill="#181818" points="655.6018,620.5,665.6018,624.5,655.6018,628.5,659.6018,624.5" style="stroke:#181818;stroke-width:1;"/><line style="stroke:#181818;stroke-width:1.5;" x1="439.0857" x2="661.6018" y1="624.5" y2="624.5"/><text fill="#000000" font-family="sans-serif" font-size="13" lengthAdjust="spacing" textLength="204.5161" x="446.0857" y="618.691">GET /v1/secret/data/db-password</text></g><g class="message" data-participant-1="vault" data-participant-2="plugin"><polygon fill="#181818" points="450.0857,652.206,440.0857,656.206,450.0857,660.206,446.0857,656.206" style="stroke:#181818;stroke-width:1;"/><line style="stroke:#181818;stroke-width:1.5;stroke-dasharray:2,2;" x1="444.0857" x2="666.6018" y1="656.206" y2="656.206"/><text fill="#000000" font-family="sans-serif" font-size="13" lengthAdjust="spacing" textLength="162.2271" x="456.0857" y="650.397">{"data": {"password": "..."}}</text></g><g class="message" data-participant-1="plugin" data-participant-2="doorman"><polygon fill="#181818" points="181.2359,683.912,171.2359,687.912,181.2359,691.912,177.2359,687.912" style="stroke:#181818;stroke-width:1;"/><line style="stroke:#181818;stroke-width:1.5;stroke-dasharray:2,2;" x1="175.2359" x2="438.0857" y1="687.912" y2="687.912"/><text fill="#000000" font-family="sans-serif" font-size="13" lengthAdjust="spacing" textLength="74.1001" x="187.2359" y="682.103">Secret value</text></g><g class="message" data-participant-1="doorman" data-participant-2="cache"><polygon fill="#181818" points="321.102,733.3241,331.102,737.3241,321.102,741.3241,325.102,737.3241" style="stroke:#181818;stroke-width:1;"/><line style="stroke:#181818;stroke-width:1.5;" x1="170.2359" x2="327.102" y1="737.3241" y2="737.3241"/><text fill="#000000" font-family="sans-serif" font-size="13" lengthAdjust="spacing" textLength="91.8711" x="177.2359" y="713.8091">Encrypt + store</text><text fill="#000000" font-family="sans-serif" font-size="13" lengthAdjust="spacing" textLength="50.9471" x="177.2359" y="731.5151">with TTL</text></g><g class="message" data-participant-1="doorman" data-participant-2="pipeline"><polygon fill="#181818" points="66.3788,765.0301,56.3788,769.0301,66.3788,773.0301,62.3788,769.0301" style="stroke:#181818;stroke-width:1;"/><line style="stroke:#181818;stroke-width:1.5;stroke-dasharray:2,2;" x1="60.3788" x2="169.2359" y1="769.0301" y2="769.0301"/><text fill="#000000" font-family="sans-serif" font-size="13" lengthAdjust="spacing" textLength="74.1001" x="72.3788" y="763.2211">Secret value</text></g><rect fill="#EEEEEE" height="3" style="stroke:#EEEEEE;stroke-width:1;" width="706.3597" x="0" y="798.8831"/><line style="stroke:#000000;stroke-width:1;" x1="0" x2="706.3597" y1="798.8831" y2="798.8831"/><line style="stroke:#000000;stroke-width:1;" x1="0" x2="706.3597" y1="801.8831" y2="801.8831"/><rect fill="#EEEEEE" height="25.706" style="stroke:#000000;stroke-width:2;" width="108.6011" x="298.8793" y="787.0301"/><text fill="#000000" font-family="sans-serif" font-size="13" font-weight="bold" lengthAdjust="spacing" textLength="91.2211" x="304.8793" y="804.9271">Cache Expired</text><g class="message" data-participant-1="pipeline" data-participant-2="doorman"><polygon fill="#181818" points="158.2359,860.1481,168.2359,864.1481,158.2359,868.1481,162.2359,864.1481" style="stroke:#181818;stroke-width:1;"/><line style="stroke:#181818;stroke-width:1.5;" x1="55.3788" x2="164.2359" y1="864.1481" y2="864.1481"/><text fill="#000000" font-family="sans-serif" font-size="13" lengthAdjust="spacing" textLength="90.8571" x="62.3788" y="840.6331">Resolve secret:</text><text fill="#000000" font-family="sans-serif" font-size="13" lengthAdjust="spacing" textLength="54.34" x="62.3788" y="858.3391">"api-key"</text></g><g class="message" data-participant-1="doorman" data-participant-2="cache"><polygon fill="#181818" points="321.102,891.8542,331.102,895.8542,321.102,899.8542,325.102,895.8542" style="stroke:#181818;stroke-width:1;"/><line style="stroke:#181818;stroke-width:1.5;" x1="170.2359" x2="327.102" y1="895.8542" y2="895.8542"/><text fill="#000000" font-family="sans-serif" font-size="13" lengthAdjust="spacing" textLength="103.2331" x="177.2359" y="890.0452">Lookup "api-key"</text></g><g class="message" data-participant-1="cache" data-participant-2="doorman"><polygon fill="#181818" points="181.2359,923.5602,171.2359,927.5602,181.2359,931.5602,177.2359,927.5602" style="stroke:#181818;stroke-width:1;"/><line style="stroke:#181818;stroke-width:1.5;stroke-dasharray:2,2;" x1="175.2359" x2="332.102" y1="927.5602" y2="927.5602"/><text fill="#000000" font-family="sans-serif" font-size="13" lengthAdjust="spacing" textLength="112.4111" x="187.2359" y="921.7512">Found but expired</text></g><g class="message" data-participant-1="doorman" data-participant-2="plugin"><polygon fill="#181818" points="427.0857,972.9722,437.0857,976.9722,427.0857,980.9722,431.0857,976.9722" style="stroke:#181818;stroke-width:1;"/><line style="stroke:#181818;stroke-width:1.5;" x1="170.2359" x2="433.0857" y1="976.9722" y2="976.9722"/><text fill="#000000" font-family="sans-serif" font-size="13" lengthAdjust="spacing" textLength="71.487" x="177.2359" y="953.4572">IPC: refresh</text><text fill="#000000" font-family="sans-serif" font-size="13" lengthAdjust="spacing" textLength="128.4791" x="177.2359" y="971.1632">"secret/data/api-key"</text></g><g class="message" data-participant-1="plugin" data-participant-2="vault"><polygon fill="#181818" points="655.6018,1004.6782,665.6018,1008.6782,655.6018,1012.6782,659.6018,1008.6782" style="stroke:#181818;stroke-width:1;"/><line style="stroke:#181818;stroke-width:1.5;" x1="439.0857" x2="661.6018" y1="1008.6782" y2="1008.6782"/><text fill="#000000" font-family="sans-serif" font-size="13" lengthAdjust="spacing" textLength="168.8831" x="446.0857" y="1002.8692">GET /v1/secret/data/api-key</text></g><g class="message" data-participant-1="vault" data-participant-2="plugin"><polygon fill="#181818" points="450.0857,1036.3842,440.0857,1040.3842,450.0857,1044.3842,446.0857,1040.3842" style="stroke:#181818;stroke-width:1;"/><line style="stroke:#181818;stroke-width:1.5;stroke-dasharray:2,2;" x1="444.0857" x2="666.6018" y1="1040.3842" y2="1040.3842"/><text fill="#000000" font-family="sans-serif" font-size="13" lengthAdjust="spacing" textLength="123.9421" x="456.0857" y="1034.5752">{"data": {"key": "..."}}</text></g><g class="message" data-participant-1="plugin" data-participant-2="doorman"><polygon fill="#181818" points="181.2359,1068.0903,171.2359,1072.0903,181.2359,1076.0903,177.2359,1072.0903" style="stroke:#181818;stroke-width:1;"/><line style="stroke:#181818;stroke-width:1.5;stroke-dasharray:2,2;" x1="175.2359" x2="438.0857" y1="1072.0903" y2="1072.0903"/><text fill="#000000" font-family="sans-serif" font-size="13" lengthAdjust="spacing" textLength="74.1001" x="187.2359" y="1066.2813">Secret value</text></g><g class="message" data-participant-1="doorman" data-participant-2="cache"><polygon fill="#181818" points="321.102,1117.5023,331.102,1121.5023,321.102,1125.5023,325.102,1121.5023" style="stroke:#181818;stroke-width:1;"/><line style="stroke:#181818;stroke-width:1.5;" x1="170.2359" x2="327.102" y1="1121.5023" y2="1121.5023"/><text fill="#000000" font-family="sans-serif" font-size="13" lengthAdjust="spacing" textLength="111.5791" x="177.2359" y="1097.9873">Re-encrypt + store</text><text fill="#000000" font-family="sans-serif" font-size="13" lengthAdjust="spacing" textLength="79.9111" x="177.2359" y="1115.6933">with new TTL</text></g><g class="message" data-participant-1="doorman" data-participant-2="pipeline"><polygon fill="#181818" points="66.3788,1149.2083,56.3788,1153.2083,66.3788,1157.2083,62.3788,1153.2083" style="stroke:#181818;stroke-width:1;"/><line style="stroke:#181818;stroke-width:1.5;stroke-dasharray:2,2;" x1="60.3788" x2="169.2359" y1="1153.2083" y2="1153.2083"/><text fill="#000000" font-family="sans-serif" font-size="13" lengthAdjust="spacing" textLength="74.1001" x="72.3788" y="1147.3993">Secret value</text></g><!--SRC=[fLFBRjim4BphAnRg9K4Z2G7SYm07I5odBP2sHchqf0jDhMl2z98bAIj14Q0VaI_ibvHwM8vQEOtH6o7EpWvdHauuYN2vORbayEld8tn1Rj31BLeb2oSKmRLKPH3OjI3D3Dk0nUy54iTBOrGvNmc-9hGMpkCt0w0PCqvmeHcvAsLoD1CbbO5Nez4e2FJ-4iAPq2W5OKOd9R8jcZD0n-FJ49W5tLxsHtAbp8PHHZd3ZQ8QsNxh0wV4pRrsc6SqONo5DP9Nfq72QCiAwJBIilWc6jhc6EJCiGMp2E7N2W99HfyrqXLJDQgU2uBn6Eery5uu68-3dNg8BdRw86qitgAtgd8ypIXqqaOSlPwbuCnX6Ep0VgvMwwTkb5eN6lx6De2ej-9Q5PJ32Ia7UAU5mVnqYFCjrlPu-RB0GQAPP88SthbMxPx5mxhdfRlsD4Hx7puANv0ZZCWNaMRMbhunpvhGmmtf_kHVlgnCUChIPEblFymcAInzorP-PxCzgH9EUhmjt0_MyVgvTzCv9DlpvC18qE2Yfwj-X1Kgh0uTSmfX7CVXmqEtegUzv-M02MsfuJLOfup_RqhXLZ2VtnmPphHfnZ7vC2sYDTu_cqs7ELpCHT7ryd0-1fS6xPy9TUmlIwU5_oEPYl0_Gxd520Tp8InVdCrl]--></g></svg>