<svg xmlns="http://www.w3.org/2000/svg" xmlns:xlink="http://www.w3.org/1999/xlink" contentStyleType="text/css" data-diagram-type="SEQUENCE" height="908px" preserveAspectRatio="none" style="width:801px;height:908px;background:#FFFFFF;" version="1.1" viewBox="0 0 801 908" width="801px" zoomAndPan="magnify"><?plantuml 1.2026.6?><defs/><g><g class="title" data-source-line="2"><text fill="#000000" font-family="sans-serif" font-size="14" font-weight="700" lengthAdjust="spacing" textLength="335.1167" x="229.8503" y="29.9659">garbage settings &#8212; Configuration and Statistics</text></g><g class="participant-lifeline" data-entity-uid="part1" data-qualified-name="user" data-source-line="7" id="part1-lifeline"><g><title>User</title><rect fill="#000000" fill-opacity="0.00000" height="689.5324" width="8" x="19.3089" y="129.2038"/><line style="stroke:#181818;stroke-width:0.5;stroke-dasharray:5,5;" x1="23" x2="23" y1="129.2038" y2="818.7361"/></g></g><g class="participant-lifeline" data-entity-uid="part2" data-qualified-name="cmd" data-source-line="8" id="part2-lifeline"><g><title>cmd.</title><rect fill="#000000" fill-opacity="0.00000" height="689.5324" width="8" x="291.4532" y="129.2038"/><line style="stroke:#181818;stroke-width:0.5;stroke-dasharray:5,5;" x1="294.6392" x2="294.6392" y1="129.2038" y2="818.7361"/></g></g><g class="participant-lifeline" data-entity-uid="part3" data-qualified-name="dbpkg" data-source-line="9" id="part3-lifeline"><g><title>db.</title><rect fill="#000000" fill-opacity="0.00000" height="689.5324" width="8" x="426.5903" y="129.2038"/><line style="stroke:#181818;stroke-width:0.5;stroke-dasharray:5,5;" x1="430.3763" x2="430.3763" y1="129.2038" y2="818.7361"/></g></g><g class="participant-lifeline" data-entity-uid="part4" data-qualified-name="trash" data-source-line="10" id="part4-lifeline"><g><title>trash.</title><rect fill="#000000" fill-opacity="0.00000" height="689.5324" width="8" x="481.4322" y="129.2038"/><line style="stroke:#181818;stroke-width:0.5;stroke-dasharray:5,5;" x1="484.8043" x2="484.8043" y1="129.2038" y2="818.7361"/></g></g><g class="participant-lifeline" data-entity-uid="part5" data-qualified-name="out" data-source-line="11" id="part5-lifeline"><g><title>output.</title><rect fill="#000000" fill-opacity="0.00000" height="689.5324" width="8" x="549.91" y="129.2038"/><line style="stroke:#181818;stroke-width:0.5;stroke-dasharray:5,5;" x1="553.0601" x2="553.0601" y1="129.2038" y2="818.7361"/></g></g><g class="participant-lifeline" data-entity-uid="part6" data-qualified-name="db" data-source-line="12" id="part6-lifeline"><g><title>SQLite</title><rect fill="#000000" fill-opacity="0.00000" height="689.5324" width="8" x="702.1276" y="129.2038"/><line style="stroke:#181818;stroke-width:0.5;stroke-dasharray:5,5;" x1="705.4379" x2="705.4379" y1="129.2038" y2="818.7361"/></g></g><g class="participant participant-head" data-entity-uid="part1" data-qualified-name="user" data-source-line="7" id="part1-head"><text fill="#000000" font-family="sans-serif" font-size="14" lengthAdjust="spacing" textLength="30.6179" x="5" y="125.1018">User</text><ellipse cx="23.3089" cy="58.6358" fill="#E2E2F0" rx="8" ry="8" style="stroke:#181818;stroke-width:0.5;"/><path d="M23.3089,66.6358 L23.3089,93.6358 M10.3089,74.6358 L36.3089,74.6358 M23.3089,93.6358 L10.3089,108.6358 M23.3089,93.6358 L36.3089,108.6358" fill="none" style="stroke:#181818;stroke-width:0.5;"/></g><g class="participant participant-tail" data-entity-uid="part1" data-qualified-name="user" data-source-line="7" id="part1-tail"><text fill="#000000" font-family="sans-serif" font-size="14" lengthAdjust="spacing" textLength="30.6179" x="5" y="832.702">User</text><ellipse cx="23.3089" cy="845.304" fill="#E2E2F0" rx="8" ry="8" style="stroke:#181818;stroke-width:0.5;"/><path d="M23.3089,853.304 L23.3089,880.304 M10.3089,861.304 L36.3089,861.304 M23.3089,880.304 L10.3089,895.304 M23.3089,880.304 L36.3089,895.304" fill="none" style="stroke:#181818;stroke-width:0.5;"/></g><g class="participant participant-head" data-entity-uid="part2" data-qualified-name="cmd" data-source-line="8" id="part2-head"><rect fill="#E2E2F0" height="33.0679" rx="2.5" ry="2.5" style="stroke:#444444;stroke-width:0.5;" width="47.6279" x="271.6392" y="95.1358"/><text fill="#000000" font-family="sans-serif" font-size="14" lengthAdjust="spacing" textLength="33.6279" x="278.6392" y="117.1018">cmd/</text></g><g class="participant participant-tail" data-entity-uid="part2" data-qualified-name="cmd" data-source-line="8" id="part2-tail"><rect fill="#E2E2F0" height="33.0679" rx="2.5" ry="2.5" style="stroke:#444444;stroke-width:0.5;" width="47.6279" x="271.6392" y="817.7361"/><text fill="#000000" font-family="sans-serif" font-size="14" lengthAdjust="spacing" textLength="33.6279" x="278.6392" y="839.702">cmd/</text></g><g class="participant participant-head" data-entity-uid="part3" data-qualified-name="dbpkg" data-source-line="9" id="part3-head"><rect fill="#E2E2F0" height="33.0679" rx="2.5" ry="2.5" style="stroke:#444444;stroke-width:0.5;" width="36.4279" x="412.3763" y="95.1358"/><text fill="#000000" font-family="sans-serif" font-size="14" lengthAdjust="spacing" textLength="22.4279" x="419.3763" y="117.1018">db/</text></g><g class="participant participant-tail" data-entity-uid="part3" data-qualified-name="dbpkg" data-source-line="9" id="part3-tail"><rect fill="#E2E2F0" height="33.0679" rx="2.5" ry="2.5" style="stroke:#444444;stroke-width:0.5;" width="36.4279" x="412.3763" y="817.7361"/><text fill="#000000" font-family="sans-serif" font-size="14" lengthAdjust="spacing" textLength="22.4279" x="419.3763" y="839.702">db/</text></g><g class="participant participant-head" data-entity-uid="part4" data-qualified-name="trash" data-source-line="10" id="part4-head"><rect fill="#E2E2F0" height="33.0679" rx="2.5" ry="2.5" style="stroke:#444444;stroke-width:0.5;" width="53.2559" x="458.8043" y="95.1358"/><text fill="#000000" font-family="sans-serif" font-size="14" lengthAdjust="spacing" textLength="39.2559" x="465.8043" y="117.1018">trash/</text></g><g class="participant participant-tail" data-entity-uid="part4" data-qualified-name="trash" data-source-line="10" id="part4-tail"><rect fill="#E2E2F0" height="33.0679" rx="2.5" ry="2.5" style="stroke:#444444;stroke-width:0.5;" width="53.2559" x="458.8043" y="817.7361"/><text fill="#000000" font-family="sans-serif" font-size="14" lengthAdjust="spacing" textLength="39.2559" x="465.8043" y="839.702">trash/</text></g><g class="participant participant-head" data-entity-uid="part5" data-qualified-name="out" data-source-line="11" id="part5-head"><rect fill="#E2E2F0" height="33.0679" rx="2.5" ry="2.5" style="stroke:#444444;stroke-width:0.5;" width="63.6998" x="522.0601" y="95.1358"/><text fill="#000000" font-family="sans-serif" font-size="14" lengthAdjust="spacing" textLength="49.6998" x="529.0601" y="117.1018">output/</text></g><g class="participant participant-tail" data-entity-uid="part5" data-qualified-name="out" data-source-line="11" id="part5-tail"><rect fill="#E2E2F0" height="33.0679" rx="2.5" ry="2.5" style="stroke:#444444;stroke-width:0.5;" width="63.6998" x="522.0601" y="817.7361"/><text fill="#000000" font-family="sans-serif" font-size="14" lengthAdjust="spacing" textLength="49.6998" x="529.0601" y="839.702">output/</text></g><g class="participant participant-head" data-entity-uid="part6" data-qualified-name="db" data-source-line="12" id="part6-head"><text fill="#000000" font-family="sans-serif" font-size="14" lengthAdjust="spacing" textLength="42.5178" x="681.8687" y="106.0339">SQLite</text><text fill="#000000" font-family="sans-serif" font-size="14" lengthAdjust="spacing" textLength="163.3794" x="621.4379" y="125.1018">(/.local/amadla/db.sqlite)</text><path d="M688.1276,55.0679 C688.1276,45.0679 706.1276,45.0679 706.1276,45.0679 C706.1276,45.0679 724.1276,45.0679 724.1276,55.0679 L724.1276,81.0679 C724.1276,91.0679 706.1276,91.0679 706.1276,91.0679 C706.1276,91.0679 688.1276,91.0679 688.1276,81.0679 L688.1276,55.0679" fill="#E2E2F0" style="stroke:#181818;stroke-width:0.5;"/><path d="M688.1276,55.0679 C688.1276,65.0679 706.1276,65.0679 706.1276,65.0679 C706.1276,65.0679 724.1276,65.0679 724.1276,55.0679" fill="none" style="stroke:#181818;stroke-width:0.5;"/></g><g class="participant participant-tail" data-entity-uid="part6" data-qualified-name="db" data-source-line="12" id="part6-tail"><text fill="#000000" font-family="sans-serif" font-size="14" lengthAdjust="spacing" textLength="42.5178" x="681.8687" y="832.702">SQLite</text><text fill="#000000" font-family="sans-serif" font-size="14" lengthAdjust="spacing" textLength="163.3794" x="621.4379" y="851.77">(/.local/amadla/db.sqlite)</text><path d="M688.1276,865.8719 C688.1276,855.8719 706.1276,855.8719 706.1276,855.8719 C706.1276,855.8719 724.1276,855.8719 724.1276,865.8719 L724.1276,891.8719 C724.1276,901.8719 706.1276,901.8719 706.1276,901.8719 C706.1276,901.8719 688.1276,901.8719 688.1276,891.8719 L688.1276,865.8719" fill="#E2E2F0" style="stroke:#181818;stroke-width:0.5;"/><path d="M688.1276,865.8719 C688.1276,875.8719 706.1276,875.8719 706.1276,875.8719 C706.1276,875.8719 724.1276,875.8719 724.1276,865.8719" fill="none" style="stroke:#181818;stroke-width:0.5;"/></g><rect fill="#EEEEEE" height="3" style="stroke:#EEEEEE;stroke-width:1;" width="795.8173" x="0" y="161.0568"/><line style="stroke:#000000;stroke-width:1;" x1="0" x2="795.8173" y1="161.0568" y2="161.0568"/><line style="stroke:#000000;stroke-width:1;" x1="0" x2="795.8173" y1="164.0568" y2="164.0568"/><rect fill="#EEEEEE" height="25.706" style="stroke:#000000;stroke-width:2;" width="209.3901" x="293.2136" y="149.2038"/><text fill="#000000" font-family="sans-serif" font-size="13" font-weight="700" lengthAdjust="spacing" textLength="192.0101" x="299.2136" y="167.1008">Opening the shared database</text><g class="message" data-entity-1="part1" data-entity-2="part2" data-source-line="16" id="msg1"><polygon fill="#181818" points="283.4532,204.6158,293.4532,208.6158,283.4532,212.6158,287.4532,208.6158" style="stroke:#181818;stroke-width:1;stroke-linejoin:miter;stroke-miterlimit:10;"/><line style="stroke:#181818;stroke-width:1.5;" x1="23.3089" x2="289.4532" y1="208.6158" y2="208.6158"/><text fill="#000000" font-family="sans-serif" font-size="13" lengthAdjust="spacing" textLength="103.2071" x="30.3089" y="202.8068">garbage settings</text></g><g class="message" data-entity-1="part2" data-entity-2="part3" data-source-line="17" id="msg2"><polygon fill="#181818" points="418.5903,236.3218,428.5903,240.3218,418.5903,244.3218,422.5903,240.3218" style="stroke:#181818;stroke-width:1;stroke-linejoin:miter;stroke-miterlimit:10;"/><line style="stroke:#181818;stroke-width:1.5;" x1="295.4532" x2="424.5903" y1="240.3218" y2="240.3218"/><text fill="#000000" font-family="sans-serif" font-size="13" lengthAdjust="spacing" textLength="111.1371" x="302.4532" y="234.5128">Open() + Migrate()</text></g><g class="message" data-entity-1="part3" data-entity-2="part6" data-source-line="18" id="msg3"><polygon fill="#181818" points="694.1276,285.7338,704.1276,289.7338,694.1276,293.7338,698.1276,289.7338" style="stroke:#181818;stroke-width:1;stroke-linejoin:miter;stroke-miterlimit:10;"/><line style="stroke:#181818;stroke-width:1.5;" x1="430.5903" x2="700.1276" y1="289.7338" y2="289.7338"/><text fill="#000000" font-family="sans-serif" font-size="13" lengthAdjust="spacing" textLength="111.8261" x="437.5903" y="266.2188">open (WAL mode),</text><text fill="#000000" font-family="sans-serif" font-size="13" lengthAdjust="spacing" textLength="251.5373" x="437.5903" y="283.9248">CREATE TABLE IF NOT EXISTS trash_items</text></g><g class="message" data-entity-1="part2" data-entity-2="part4" data-source-line="19" id="msg4"><polygon fill="#181818" points="473.4322,317.4398,483.4322,321.4398,473.4322,325.4398,477.4322,321.4398" style="stroke:#181818;stroke-width:1;stroke-linejoin:miter;stroke-miterlimit:10;"/><line style="stroke:#181818;stroke-width:1.5;" x1="295.4532" x2="479.4322" y1="321.4398" y2="321.4398"/><text fill="#000000" font-family="sans-serif" font-size="13" lengthAdjust="spacing" textLength="165.4641" x="302.4532" y="315.6308">NewService(conn, trashDir)</text></g><rect fill="#EEEEEE" height="3" style="stroke:#EEEEEE;stroke-width:1;" width="795.8173" x="0" y="351.2929"/><line style="stroke:#000000;stroke-width:1;" x1="0" x2="795.8173" y1="351.2929" y2="351.2929"/><line style="stroke:#000000;stroke-width:1;" x1="0" x2="795.8173" y1="354.2929" y2="354.2929"/><rect fill="#EEEEEE" height="25.706" style="stroke:#000000;stroke-width:2;" width="144.533" x="325.6421" y="339.4398"/><text fill="#000000" font-family="sans-serif" font-size="13" font-weight="700" lengthAdjust="spacing" textLength="127.153" x="331.6421" y="357.3369">Collecting statistics</text><g class="message" data-entity-1="part2" data-entity-2="part4" data-source-line="23" id="msg5"><polygon fill="#181818" points="473.4322,394.8519,483.4322,398.8519,473.4322,402.8519,477.4322,398.8519" style="stroke:#181818;stroke-width:1;stroke-linejoin:miter;stroke-miterlimit:10;"/><line style="stroke:#181818;stroke-width:1.5;" x1="295.4532" x2="479.4322" y1="398.8519" y2="398.8519"/><text fill="#000000" font-family="sans-serif" font-size="13" lengthAdjust="spacing" textLength="37.843" x="302.4532" y="393.0429">Stats()</text></g><g class="message" data-entity-1="part4" data-entity-2="part6" data-source-line="24" id="msg6"><polygon fill="#181818" points="694.1276,444.2639,704.1276,448.2639,694.1276,452.2639,698.1276,448.2639" style="stroke:#181818;stroke-width:1;stroke-linejoin:miter;stroke-miterlimit:10;"/><line style="stroke:#181818;stroke-width:1.5;" x1="485.4322" x2="700.1276" y1="448.2639" y2="448.2639"/><text fill="#000000" font-family="sans-serif" font-size="13" lengthAdjust="spacing" textLength="110.6561" x="492.4322" y="424.7489">SELECT COUNT(*),</text><text fill="#000000" font-family="sans-serif" font-size="13" lengthAdjust="spacing" textLength="183.3002" x="492.4322" y="442.4549">COALESCE(SUM(size_bytes), 0)</text></g><g class="message" data-entity-1="part6" data-entity-2="part4" data-source-line="25" id="msg7"><polygon fill="#181818" points="496.4322,475.9699,486.4322,479.9699,496.4322,483.9699,492.4322,479.9699" style="stroke:#181818;stroke-width:1;stroke-linejoin:miter;stroke-miterlimit:10;"/><line style="stroke:#181818;stroke-width:1.5;stroke-dasharray:2,2;" x1="490.4322" x2="705.1276" y1="479.9699" y2="479.9699"/><text fill="#000000" font-family="sans-serif" font-size="13" lengthAdjust="spacing" textLength="105.8851" x="502.4322" y="474.1609">count, total bytes</text></g><g class="message" data-entity-1="part4" data-entity-2="part2" data-source-line="26" id="msg8"><polygon fill="#181818" points="306.4532,507.6759,296.4532,511.6759,306.4532,515.6759,302.4532,511.6759" style="stroke:#181818;stroke-width:1;stroke-linejoin:miter;stroke-miterlimit:10;"/><line style="stroke:#181818;stroke-width:1.5;stroke-dasharray:2,2;" x1="300.4532" x2="484.4322" y1="511.6759" y2="511.6759"/><text fill="#000000" font-family="sans-serif" font-size="13" lengthAdjust="spacing" textLength="102.9601" x="312.4532" y="505.8669">count, totalBytes</text></g><rect fill="#EEEEEE" height="3" style="stroke:#EEEEEE;stroke-width:1;" width="795.8173" x="0" y="541.529"/><line style="stroke:#000000;stroke-width:1;" x1="0" x2="795.8173" y1="541.529" y2="541.529"/><line style="stroke:#000000;stroke-width:1;" x1="0" x2="795.8173" y1="544.529" y2="544.529"/><rect fill="#EEEEEE" height="25.706" style="stroke:#000000;stroke-width:2;" width="64.323" x="365.7471" y="529.6759"/><text fill="#000000" font-family="sans-serif" font-size="13" font-weight="700" lengthAdjust="spacing" textLength="46.943" x="371.7471" y="547.573">Output</text><g class="message" data-entity-1="part2" data-entity-2="part5" data-source-line="30" id="msg9"><polygon fill="#181818" points="541.91,602.794,551.91,606.794,541.91,610.794,545.91,606.794" style="stroke:#181818;stroke-width:1;stroke-linejoin:miter;stroke-miterlimit:10;"/><line style="stroke:#181818;stroke-width:1.5;" x1="295.4532" x2="547.91" y1="606.794" y2="606.794"/><text fill="#000000" font-family="sans-serif" font-size="13" lengthAdjust="spacing" textLength="160.7972" x="302.4532" y="583.279">Result({trash_dir, db_path,</text><text fill="#000000" font-family="sans-serif" font-size="13" lengthAdjust="spacing" textLength="213.9802" x="302.4532" y="600.985">item_count, total_bytes, total_size})</text></g><g class="message" data-entity-1="part5" data-entity-2="part1" data-source-line="31" id="msg10"><polygon fill="#181818" points="34.3089,669.912,24.3089,673.912,34.3089,677.912,30.3089,673.912" style="stroke:#181818;stroke-width:1;stroke-linejoin:miter;stroke-miterlimit:10;"/><line style="stroke:#181818;stroke-width:1.5;stroke-dasharray:2,2;" x1="28.3089" x2="552.91" y1="673.912" y2="673.912"/><text fill="#000000" font-family="sans-serif" font-size="13" lengthAdjust="spacing" textLength="187.7072" x="40.3089" y="632.691">trash directory, database path,</text><text fill="#000000" font-family="sans-serif" font-size="13" lengthAdjust="spacing" textLength="189.1112" x="40.3089" y="650.397">item count, total size on stdout</text><text fill="#000000" font-family="sans-serif" font-size="13" lengthAdjust="spacing" textLength="47.333" x="40.3089" y="668.103">or JSON</text></g><rect fill="#EEEEEE" height="3" style="stroke:#EEEEEE;stroke-width:1;" width="795.8173" x="0" y="703.7651"/><line style="stroke:#000000;stroke-width:1;" x1="0" x2="795.8173" y1="703.7651" y2="703.7651"/><line style="stroke:#000000;stroke-width:1;" x1="0" x2="795.8173" y1="706.7651" y2="706.7651"/><rect fill="#EEEEEE" height="25.706" style="stroke:#000000;stroke-width:2;" width="56.8741" x="369.4716" y="691.912"/><text fill="#000000" font-family="sans-serif" font-size="13" font-weight="700" lengthAdjust="spacing" textLength="39.494" x="375.4716" y="709.8091">Errors</text><g class="message" data-entity-1="part1" data-entity-2="part2" data-source-line="35" id="msg11"><polygon fill="#181818" points="283.4532,765.0301,293.4532,769.0301,283.4532,773.0301,287.4532,769.0301" style="stroke:#181818;stroke-width:1;stroke-linejoin:miter;stroke-miterlimit:10;"/><line style="stroke:#181818;stroke-width:1.5;" x1="23.3089" x2="289.4532" y1="769.0301" y2="769.0301"/><text fill="#000000" font-family="sans-serif" font-size="13" lengthAdjust="spacing" textLength="248.1442" x="30.3089" y="745.5151">garbage settings (home dir unresolvable</text><text fill="#000000" font-family="sans-serif" font-size="13" lengthAdjust="spacing" textLength="111.8651" x="30.3089" y="763.2211">or DB unreadable)</text></g><g class="message" data-entity-1="part2" data-entity-2="part1" data-source-line="36" id="msg12"><polygon fill="#181818" points="34.3089,796.7361,24.3089,800.7361,34.3089,804.7361,30.3089,800.7361" style="stroke:#181818;stroke-width:1;stroke-linejoin:miter;stroke-miterlimit:10;"/><line style="stroke:#181818;stroke-width:1.5;stroke-dasharray:2,2;" x1="28.3089" x2="294.4532" y1="800.7361" y2="800.7361"/><text fill="#000000" font-family="sans-serif" font-size="13" lengthAdjust="spacing" textLength="130.8841" x="40.3089" y="794.9271">error on stderr, exit 1</text></g><?plantuml-src ZLFBZjCm5DtxAwxA9e5CoqXbCrAHsawG1dLQcAI2HQNAYI-jrTJEsCuC0mBn4NmXNyArqoUmO7VjStpkkGyxwIg45JS5No5OT4wgbOLVFtx2MAjFSjKOxgHMm9M0p55idImjOtOZLSqDtzAZ-mPLYKDZz6E-bkL6eRLmsNtr3z8xRkYzhBbo8sq4ch6kj85d_NwVCLuwYZjpYwO3t4930QkFBw1JRaKlG1IS8w9e0L7KczKvv0otwnODuJcg6rStheKfPe8xNd2BqCdUJwJ3XOg-zxgLBddLurikAjuJHTVULuJ5kvIC3GOmgr5Hyy2jgP5hRb30GMimOCnN0nUllNMu-glbp5yJ6lmJxjMY65x0hLpH232AMGi53X4q4I3wC9p0LWkCauKQtwN3F8LyE9gaSFC6fhCSqeytMPwrTI_9yVQGA5oHpXGVCpGFiiIer4ebBN0jJHogelbKM7gBO0_Z3_NyeUENmvBBzhntcQMJT9p3U3QVvj7pu78sdAJPE8so-MravHTS5ayERPp0IryYN9nebhfHZXnfnoi8jBtyeO-db55WX5c4ePxQfD4I-mvjKxdeQziF8Kr2DfSrTsjovjkpFDLhdUqFtkktc7aXdpwCysfdbPJGB-zJSfpvYUfv8Lu8w4jP9qXieMZdtsQpQJ2UqYSozZ_s1QArtg9F38qoQ7Nrm8iAWzhrADnnuM_YjWD7n-XJxF9Jd01-bWuksMy0?></g></svg>